<?xml version="1.0" encoding="utf-8"?>
<!-- Generator: Adobe Illustrator 25.1.0, SVG Export Plug-In . SVG Version: 6.00 Build 0)  -->
<svg version="1.1" id="Layer_1" xmlns="http://www.w3.org/2000/svg" xmlns:xlink="http://www.w3.org/1999/xlink" x="0px" y="0px"
	 viewBox="0 0 223 139" style="enable-background:new 0 0 223 139;" xml:space="preserve">
<style type="text/css">
	.st0{fill:#FFFFFF;}
	.st1{enable-background:new    ;}
	.st2{fill:#377386;stroke:#377487;stroke-width:0.5;stroke-miterlimit:10;}
	.st3{fill-rule:evenodd;clip-rule:evenodd;fill:#9585F4;}
	.st4{fill-rule:evenodd;clip-rule:evenodd;fill:#BBAAF7;}
	.st5{fill-rule:evenodd;clip-rule:evenodd;fill:#03414E;}
	.st6{fill-rule:evenodd;clip-rule:evenodd;fill:#97C0CC;}
</style>
<g id="Group-2">
	<g id="Rectangle">
		<g>
			<path id="path-1" class="st0" d="M10,6h203c1.7,0,3,1.3,3,3v118.8c0,1.7-1.3,3-3,3H10c-1.7,0-3-1.3-3-3V9C7,7.3,8.3,6,10,6z"/>
		</g>
		<g>
			<path id="path-1_1_" class="st0" d="M10,6h203c1.7,0,3,1.3,3,3v118.8c0,1.7-1.3,3-3,3H10c-1.7,0-3-1.3-3-3V9C7,7.3,8.3,6,10,6z"
				/>
		</g>
	</g>
</g>
<g class="st1">
	<path class="st2" d="M118.4,87.2c-0.5,0.2-1.2,0.3-2.1,0.3c-1.1,0-2.5-0.2-4.2-0.5c-0.3,0.3-0.5,0.6-0.7,0.9
		c-0.4,0.7-0.8,1.5-1.2,2.5c-0.4,1-0.8,2.2-1.2,3.6c-0.8,2.7-1.5,4.8-2.1,6.1c-0.6,1.4-1.3,2.4-2.1,3.1s-2,1.1-3.3,1.1
		c-0.8,0-1.5-0.2-2.1-0.6s-1.1-0.9-1.5-1.5c-0.4-0.5-0.6-1.2-0.6-2.1s0.2-1.8,0.7-2.5c0.5-0.8,1.1-1.4,1.9-1.9s1.6-0.7,2.5-0.7
		c0.1,0,0.3,0,0.4,0.1s0.1,0.2,0.1,0.4c0,0.1,0,0.3-0.1,0.4s-0.2,0.1-0.4,0.1c-0.7,0-1.4,0.2-2,0.6s-1.2,0.9-1.6,1.5s-0.6,1.3-0.6,2
		c0,1,0.3,1.8,0.9,2.4s1.4,0.9,2.3,0.9c1.1,0,2-0.3,2.7-1s1.3-1.5,1.7-2.5c0.4-1,0.9-2.4,1.5-4.2l0.6-1.9c0.4-1.3,0.8-2.5,1.2-3.6
		c0.4-1,0.8-2,1.2-2.7l0.4-0.6c-0.7-0.1-1.4-0.3-2.2-0.6c-1.3-0.4-2.4-0.6-3.2-0.8c-0.9-0.2-1.7-0.3-2.6-0.3c-1.2,0-2.2,0.3-2.9,0.9
		c-0.7,0.6-1,1.4-1,2.4c0,0.8,0.3,1.4,0.8,1.9c0.5,0.4,1.2,0.6,2,0.6c0.7,0,1.4-0.2,2.2-0.5c0.1,0,0.2,0,0.2,0
		c0.2,0,0.3,0.1,0.4,0.2s0.1,0.2,0.1,0.3c0,0.2-0.1,0.4-0.3,0.5c-0.9,0.4-1.8,0.6-2.6,0.6c-1.1,0-2-0.3-2.7-0.9s-1-1.5-1-2.6
		c0-1.3,0.4-2.4,1.3-3.1s2.1-1.1,3.7-1.1c0.7,0,1.5,0.1,2.4,0.3c0.8,0.2,1.9,0.4,3.2,0.8c1.4,0.4,2.4,0.6,3.2,0.8
		c0.6-0.5,1.3-0.9,2.1-1.1c0.8-0.3,1.6-0.4,2.4-0.4s1.4,0.1,2,0.4s0.9,0.7,0.9,1.2C119.2,86.6,118.9,87,118.4,87.2z M118.2,86.1
		c0-0.2-0.2-0.3-0.6-0.4s-0.8-0.2-1.2-0.2c-0.5,0-1,0.1-1.5,0.2c-0.6,0.1-1,0.3-1.4,0.6c1.2,0.2,2.3,0.3,3,0.3
		C117.5,86.6,118.2,86.4,118.2,86.1z"/>
	<path class="st2" d="M123.1,97.8V98c-0.8,1.8-1.6,3.1-2.2,3.9s-1.4,1.1-2.2,1.1c-0.6,0-1-0.2-1.3-0.6s-0.4-0.9-0.4-1.5
		c0-0.5,0.1-1.1,0.3-1.7c0.2-0.6,0.4-1.3,0.7-2.2c0.3-0.9,0.5-1.5,0.7-2s0.2-0.9,0.2-1.3c0-0.8-0.4-1.2-1.2-1.2
		c-0.5,0-1.2,0.4-1.9,1.3c-0.6,0.8-1.1,1.6-1.4,2.3c-0.3,0.7-0.9,2.2-1.7,4.4l-0.7,2c0,0.1-0.1,0.2-0.3,0.3
		c-0.2,0.2-0.4,0.2-0.5,0.2s-0.2-0.1-0.3-0.3s-0.1-0.3,0-0.4l0.9-2.6c2.4-6.6,3.8-10.6,4.2-11.8c0-0.1,0.1-0.2,0.2-0.2
		c0.1-0.1,0.2-0.1,0.3-0.1c0.2,0,0.3,0.1,0.4,0.2s0.1,0.3,0.1,0.5l-1.6,4.4c0.8-0.8,1.5-1.1,2.2-1.1c1.5,0,2.3,0.8,2.3,2.3
		c0,0.4-0.1,0.9-0.2,1.5c-0.2,0.6-0.4,1.3-0.7,2.2c-0.3,0.9-0.5,1.6-0.7,2.1s-0.2,1-0.2,1.4s0.1,0.6,0.2,0.8
		c0.1,0.2,0.3,0.2,0.6,0.2c0.6,0,1.1-0.3,1.6-1s1.1-1.8,1.8-3.4c0.1-0.2,0.3-0.3,0.5-0.3c0,0,0.1,0,0.2,0
		C123,97.4,123.1,97.5,123.1,97.8z"/>
	<path class="st2" d="M132.8,97.7c0,0,0,0.1,0,0.2V98c-0.4,1-0.9,1.8-1.2,2.5c-0.4,0.7-0.8,1.2-1.4,1.7c-0.6,0.5-1.1,0.8-1.8,0.8
		c-0.6,0-1-0.2-1.3-0.6s-0.4-0.9-0.4-1.5c-1,1.3-2,2-3,2c-0.6,0-1.1-0.2-1.5-0.7c-0.3-0.5-0.5-1.1-0.5-1.9c0-1.1,0.3-2.3,0.8-3.7
		c0.5-1.4,1.2-2.6,2-3.6s1.7-1.5,2.6-1.5c1,0,1.8,0.4,2.2,1.3l0.4-1.1c0-0.1,0.1-0.2,0.2-0.2c0.1-0.1,0.2-0.1,0.3-0.1
		c0.2,0,0.3,0.1,0.4,0.2c0.1,0.2,0.1,0.3,0,0.4l-1.2,3.2l-0.3,0.7c-0.5,1.4-0.8,2.4-1.1,3.1c-0.2,0.7-0.3,1.3-0.3,1.7
		c0,0.4,0.1,0.6,0.2,0.8c0.1,0.2,0.3,0.2,0.6,0.2c0.7,0,1.2-0.4,1.8-1.2c0.5-0.8,1.1-1.9,1.7-3.2v-0.1c0.1-0.2,0.3-0.3,0.5-0.3
		c0,0,0.1,0,0.2,0C132.7,97.4,132.8,97.5,132.8,97.7z M125.3,101.1c0.5-0.6,1-1.3,1.4-2.1s0.8-1.8,1.3-3l0.6-1.5
		c0-0.5-0.2-1-0.5-1.3s-0.6-0.5-1.1-0.5c-0.7,0-1.4,0.5-2,1.4c-0.7,0.9-1.2,1.9-1.6,3.2c-0.4,1.2-0.6,2.2-0.7,3.1
		c0,0.6,0.1,1,0.2,1.3s0.4,0.5,0.7,0.5C124.2,102,124.8,101.7,125.3,101.1z"/>
	<path class="st2" d="M142.4,97.7c0,0,0,0.1,0,0.2c-0.8,1.8-1.6,3.1-2.2,3.9c-0.6,0.8-1.4,1.1-2.2,1.1c-0.6,0-1-0.2-1.3-0.6
		c-0.3-0.4-0.4-0.9-0.4-1.5c0-0.5,0.1-1.1,0.3-1.6c0.2-0.6,0.4-1.3,0.7-2.1c0.3-0.8,0.6-1.5,0.7-2s0.2-1,0.2-1.4
		c0-0.8-0.4-1.2-1.2-1.2c-0.7,0-1.4,0.6-2.2,1.7s-1.4,2.3-1.9,3.6l-1.7,4.8c0,0.1-0.1,0.2-0.3,0.3c-0.1,0.1-0.3,0.1-0.4,0
		c-0.1,0-0.2-0.1-0.3-0.3s-0.1-0.3,0-0.4l1.9-5.4l1.8-5c0.1-0.2,0.2-0.3,0.5-0.3c0.2,0,0.3,0.1,0.4,0.2s0.1,0.3,0.1,0.5l-0.2,0.5
		c0.8-0.8,1.5-1.2,2.2-1.2c1.5,0,2.3,0.8,2.3,2.3c0,0.5-0.1,1-0.2,1.6c-0.2,0.6-0.4,1.3-0.7,2.3c-0.3,0.8-0.5,1.4-0.7,1.9
		c-0.2,0.5-0.2,1-0.2,1.4s0.1,0.6,0.2,0.8c0.1,0.2,0.3,0.2,0.6,0.2c0.5,0,1.1-0.3,1.6-1s1.1-1.8,1.9-3.4c0.1-0.2,0.3-0.3,0.5-0.3
		c0,0,0.1,0,0.2,0C142.3,97.4,142.4,97.5,142.4,97.7z"/>
	<path class="st2" d="M140.4,102.9c-0.1,0.1-0.3,0.1-0.4,0c-0.1,0-0.2-0.1-0.3-0.3c-0.1-0.1-0.1-0.3,0-0.4c2.9-8,4.6-12.8,5.1-14.4
		c0-0.1,0.1-0.2,0.2-0.2c0.1-0.1,0.2-0.1,0.3-0.1c0.2,0,0.3,0.1,0.4,0.2c0.1,0.1,0.1,0.3,0.1,0.5l-1.1,3c-1.9,5.4-3.2,9.1-4.1,11.3
		C140.6,102.8,140.5,102.9,140.4,102.9z M151.8,97.5c0.1,0.1,0.1,0.2,0.1,0.3c0,0,0,0.1,0,0.2c-0.7,1.6-1.4,2.8-2.1,3.7
		c-0.7,0.9-1.4,1.3-2.3,1.3c-0.5,0-1-0.2-1.3-0.6s-0.5-0.8-0.5-1.3c0-0.3,0-0.9,0.1-1.6c0.1-0.4,0.1-0.9,0.1-1.2
		c0-0.4-0.1-0.7-0.2-0.9c-0.1-0.2-0.4-0.3-0.8-0.3c-0.3,0-0.6,0.1-0.9,0.4c-0.3,0.2-0.5,0.3-0.6,0.3c-0.2,0-0.3,0-0.4-0.1
		c-0.1-0.1-0.1-0.2-0.1-0.3c0-0.2,0.1-0.3,0.2-0.5l1.4-1.2c2.7-2.4,4.1-3.7,4.3-3.9c0.1-0.1,0.2-0.1,0.3-0.1c0.2,0,0.3,0.1,0.4,0.2
		c0.1,0.1,0.1,0.2,0.1,0.3c0,0.1-0.1,0.2-0.2,0.4l-4,3.6c0.5,0.1,0.9,0.3,1.1,0.7c0.2,0.3,0.3,0.8,0.3,1.4c0,0.2,0,0.5,0,0.7
		c0,0.3-0.1,0.5-0.1,0.7c-0.1,0.8-0.1,1.3-0.1,1.5s0.1,0.4,0.2,0.6c0.1,0.2,0.3,0.3,0.6,0.3c0.6,0,1.2-0.4,1.8-1.2
		c0.6-0.8,1.1-1.9,1.7-3.2c0.1-0.2,0.3-0.3,0.5-0.3c0,0,0.1,0,0.2,0C151.7,97.3,151.7,97.4,151.8,97.5z"/>
	<path class="st2" d="M169,97.8c0,0,0,0.1,0,0.2c-0.8,1.8-1.7,3.3-2.8,4.4s-2.5,1.9-4.2,2.4c-0.6,1.7-1.3,2.9-2,3.8
		c-0.7,0.8-1.5,1.3-2.4,1.3c-0.7,0-1.3-0.2-1.7-0.6s-0.6-1-0.6-1.7c0-1.6,1.4-2.6,4.1-3.1c0.7-0.1,1.4-0.2,1.9-0.4l0.6-1.7
		c-0.6,0.5-1.2,0.8-1.8,0.8c-0.9,0-1.6-0.3-2-0.8s-0.6-1.1-0.6-1.8c0-0.4,0.1-1,0.3-1.5c0.2-0.6,0.5-1.4,0.9-2.6l0.3-0.7l1.3-3.6
		c0-0.1,0.1-0.2,0.2-0.2c0.1-0.1,0.2-0.1,0.3-0.1c0.2,0,0.3,0.1,0.4,0.2c0.1,0.1,0.1,0.3,0,0.5l-1.3,3.6l-0.7,2
		c-0.3,0.8-0.5,1.3-0.6,1.6c-0.1,0.3-0.2,0.6-0.2,0.9c0,1,0.5,1.6,1.6,1.6c0.6,0,1.3-0.5,2-1.5s1.3-2.3,1.8-3.8
		c0.1-0.4,0.4-1.1,0.7-1.9c0.3-0.7,0.6-1.7,1.1-2.8c0-0.1,0.1-0.2,0.2-0.2c0.1-0.1,0.2-0.1,0.3-0.1c0.2,0,0.3,0.1,0.4,0.2
		c0.1,0.1,0.1,0.3,0.1,0.5c-0.7,1.8-1.3,3.4-1.8,4.7l-1.9,5.5l-0.4,1.1c1.3-0.4,2.4-1.2,3.3-2.2s1.7-2.3,2.3-3.8
		c0.1-0.2,0.3-0.3,0.5-0.3c0,0,0.1,0,0.2,0C168.9,97.4,169,97.6,169,97.8z M159.3,107.8c0.6-0.6,1-1.6,1.4-2.8
		c-0.7,0.1-1.1,0.2-1.3,0.3c-1.1,0.2-1.9,0.5-2.4,0.8s-0.8,0.8-0.8,1.3c0,0.4,0.1,0.7,0.4,1c0.2,0.2,0.6,0.4,1,0.4
		C158.2,108.8,158.8,108.4,159.3,107.8z"/>
	<path class="st2" d="M176.6,100.6c-0.6,0.6-1.2,0.9-2,0.9c-0.7,0-1.3-0.2-1.8-0.6c-0.5,0.6-1,1.2-1.6,1.6s-1.1,0.6-1.7,0.6
		c-1.4,0-2.1-0.8-2.1-2.4c0-2,0.7-4.2,2-6.4c0.5-0.8,1-1.5,1.6-1.9s1.2-0.6,1.8-0.6c0.8,0,1.4,0.3,1.8,0.7c0.4,0.5,0.6,1.1,0.6,1.8
		S175,96,174.7,97c-0.3,1.1-0.8,2.1-1.4,3c0.3,0.3,0.7,0.5,1.2,0.5s1-0.2,1.4-0.7s0.9-1.2,1.3-2.2c0-0.1,0.1-0.2,0.2-0.2
		s0.2-0.1,0.3-0.1s0.3,0.1,0.4,0.2c0.1,0.1,0.2,0.2,0.2,0.3c0,0,0,0.1,0,0.2C177.8,99.2,177.2,100,176.6,100.6z M173.1,97.4
		c0.1,0.1,0.1,0.3,0.1,0.4s-0.1,0.2-0.1,0.3c0,0.1,0,0.2,0,0.2c0.4-0.7,0.7-1.5,0.9-2.3s0.3-1.4,0.3-2c0-0.5-0.1-0.9-0.4-1.1
		c-0.3-0.3-0.6-0.4-1-0.4s-0.9,0.2-1.3,0.6s-0.8,0.9-1.2,1.5c-1.3,2.1-1.9,4-1.9,5.8c0,1,0.4,1.5,1.1,1.5c0.4,0,0.9-0.2,1.3-0.6
		c0.5-0.4,0.9-0.9,1.4-1.5c-0.1-0.3-0.2-0.7-0.2-1.2c0-0.4,0-0.7,0.1-1.1c0-0.1,0.1-0.2,0.2-0.3c0.1-0.1,0.2-0.1,0.3-0.1
		C172.9,97.2,173,97.3,173.1,97.4z"/>
	<path class="st2" d="M188,97.7c0,0,0,0.1,0,0.2c-0.8,1.8-1.5,3.1-2.2,3.9s-1.4,1.2-2.2,1.2c-1,0-1.6-0.6-1.7-1.7
		c-0.4,0.5-0.8,0.9-1.3,1.2c-0.5,0.3-1,0.5-1.6,0.5l0,0c-0.8,0-1.3-0.2-1.7-0.6s-0.6-1-0.6-1.9c0-0.5,0.1-1.2,0.4-2.1s1-2.7,2-5.5
		l0.4-1c0-0.1,0.1-0.2,0.2-0.2c0.1-0.1,0.2-0.1,0.3-0.1c0.2,0,0.3,0.1,0.4,0.2c0.1,0.1,0.1,0.3,0,0.5l-1.1,2.9
		c-0.8,2.1-1.3,3.5-1.5,4s-0.3,0.9-0.3,1.3c0,1,0.4,1.5,1.3,1.5c0.5,0,1-0.2,1.5-0.6s0.9-1,1.3-1.8c0.3-0.6,0.6-1.4,1-2.2
		c0.3-0.9,0.8-2.2,1.5-3.9l0.5-1.4c0-0.1,0.1-0.2,0.2-0.2c0.1-0.1,0.2-0.1,0.3-0.1c0.2,0,0.3,0.1,0.4,0.2c0.1,0.1,0.1,0.3,0.1,0.5
		c-0.3,0.8-0.6,1.6-0.8,2.3l-0.5,1.3c-0.4,1.2-0.8,2.3-1.1,3.2c-0.3,0.9-0.4,1.5-0.4,1.9s0.1,0.6,0.2,0.8c0.1,0.2,0.3,0.2,0.6,0.2
		c0.6,0,1.1-0.3,1.6-1s1.1-1.8,1.8-3.4c0-0.1,0.1-0.2,0.2-0.2s0.2-0.1,0.3-0.1c0,0,0.1,0,0.2,0C187.9,97.4,188,97.6,188,97.7z"/>
	<path class="st2" d="M189.3,101.8c0.2,0.2,0.3,0.4,0.3,0.6s-0.1,0.4-0.3,0.6s-0.4,0.2-0.6,0.2c-0.2,0-0.4-0.1-0.6-0.2
		c-0.2-0.2-0.2-0.4-0.2-0.6s0.1-0.4,0.2-0.6c0.2-0.2,0.4-0.3,0.6-0.3C189,101.5,189.2,101.6,189.3,101.8z M194.9,85.6
		c0.1,0.1,0.1,0.3,0.1,0.5l-4.7,13.2c-0.1,0.2-0.2,0.3-0.5,0.3c-0.1,0-0.3,0-0.3-0.1c-0.1-0.1-0.1-0.2-0.1-0.3c0-0.1,0-0.1,0-0.2
		l4.7-13.2c0-0.1,0.1-0.2,0.2-0.3c0.1-0.1,0.2-0.1,0.3-0.1C194.7,85.4,194.8,85.5,194.9,85.6z"/>
</g>
<polygon id="Rectangle_1_" class="st3" points="7,15 12,19 12,35 7,31 "/>
<polygon id="Rectangle_2_" class="st4" points="7,36 12,40 12,56 7,52 "/>
<polygon id="Rectangle_3_" class="st3" points="7,57 12,61 12,77 7,73 "/>
<polygon id="Rectangle_4_" class="st4" points="7,78 12,82 12,98 7,94 "/>
<polygon id="Rectangle_5_" class="st3" points="7,99 12,103 12,119 7,115 "/>
<polygon id="Rectangle_6_" class="st4" points="7,120 12,124 12,131 7,131 "/>
<polygon id="Rectangle_7_" class="st4" points="7,6 12,6 12,14 7,10 "/>
<polygon id="Rectangle_8_" class="st3" points="211,15 216,19 216,35 211,31 "/>
<polygon id="Rectangle_9_" class="st4" points="211,36 216,40 216,56 211,52 "/>
<polygon id="Rectangle_10_" class="st3" points="211,57 216,61 216,77 211,73 "/>
<polygon id="Rectangle_11_" class="st4" points="211,78 216,82 216,98 211,94 "/>
<polygon id="Rectangle_12_" class="st3" points="211,99 216,103 216,119 211,115 "/>
<polygon id="Rectangle_13_" class="st4" points="211,120 216,124 216,131 211,131 "/>
<polygon id="Rectangle_14_" class="st4" points="211,6 216,6 216,14 211,10 "/>
<rect id="Rectangle_15_" x="26" y="16" class="st5" width="40" height="3"/>
<rect id="Rectangle_16_" x="26" y="23" class="st6" width="53" height="3"/>
<rect id="Rectangle_17_" x="26" y="31" class="st6" width="35" height="3"/>
<g id="Group-3" transform="translate(150.000000, 10.000000)">
	<g id="Clip-2">
	</g>
	<path id="Fill-1" class="st5" d="M44,12c0-0.5,0.4-1,1-1v-0.8c-0.5,0-1-0.4-1-1c0-0.6,0.4-1,1-1V6h-2.2c0,0.5-0.4,1-1,1
		c-0.5,0-1-0.4-1-1h-0.9c0,0.5-0.4,1-1,1c-0.5,0-1-0.4-1-1H37c0,0.5-0.4,1-1,1c-0.6,0-1-0.4-1-1h-0.9c0,0.5-0.4,1-1,1
		c-0.5,0-1-0.4-1-1h-0.9c0,0.5-0.4,1-1,1c-0.5,0-1-0.4-1-1h-0.9c0,0.5-0.4,1-1,1c-0.5,0-1-0.4-1-1h-0.9c0,0.5-0.4,1-1,1
		c-0.5,0-1-0.4-1-1h-0.9c0,0.5-0.4,1-1,1c-0.5,0-1-0.4-1-1h-0.9c0,0.5-0.4,1-1,1c-0.5,0-1-0.4-1-1h-0.7c0,0.5-0.4,1-1,1s-1-0.4-1-1
		H14c0,0.5-0.4,1-1,1c-0.5,0-1-0.4-1-1h-0.8c0,0.5-0.4,1-1,1c-0.5,0-1-0.4-1-1H7v2.2c0.5,0,1,0.4,1,1c0,0.5-0.4,1-1,1v0.9
		c0.5,0,1,0.4,1,1C8,12.7,7.5,13,7,13v0.9c0.5,0,1,0.4,1,1c0,0.5-0.4,1-1,1v0.9c0.5,0,1,0.4,1,1c0,0.5-0.4,1-1,1v0.9
		c0.5,0,1,0.4,1,1c0,0.5-0.4,1-1,1v0.9c0.5,0,1,0.4,1,1c0,0.5-0.4,1-1,1v0.9c0.5,0,1,0.4,1,1c0,0.5-0.4,1-1,1v0.9c0.5,0,1,0.4,1,1
		s-0.4,1-1,1v0.9c0.5,0,1,0.4,1,1c0,0.6-0.4,1-1,1v0.9c0.5,0,1,0.4,1,1c0,0.5-0.4,1-1,1V37c0.5,0,1,0.4,1,1c0,0.5-0.4,1-1,1v0.9
		c0.5,0,1,0.4,1,1c0,0.5-0.4,1-1,1V44h2.2l0,0c0-0.5,0.4-1,1-1c0.5,0,1,0.4,1,1l0,0h0.9l0,0c0-0.5,0.4-1,1-1c0.6,0,1,0.4,1,1l0,0H15
		l0,0c0-0.5,0.4-1,1-1s1,0.4,1,1l0,0h0.9l0,0c0-0.5,0.4-1,1-1c0.5,0,1,0.4,1,1l0,0h0.9l0,0c0-0.5,0.4-1,1-1c0.5,0,1,0.4,1,1l0,0h0.9
		l0,0c0-0.5,0.4-1,1-1c0.5,0,1,0.4,1,1l0,0h0.9l0,0c0-0.5,0.4-1,1-1c0.5,0,1,0.4,1,1l0,0h0.9l0,0c0-0.5,0.4-1,1-1c0.5,0,1,0.4,1,1
		l0,0h0.9l0,0c0-0.5,0.4-1,1-1c0.5,0,1,0.4,1,1l0,0h0.9l0,0c0-0.5,0.4-1,1-1c0.6,0,1,0.4,1,1l0,0H38l0,0c0-0.5,0.4-1,1-1
		c0.5,0,1,0.4,1,1l0,0h0.9l0,0c0-0.5,0.4-1,1-1c0.5,0,1,0.4,1,1l0,0H45v-2.2c-0.5,0-1-0.4-1-1c0-0.5,0.4-1,1-1v-0.9
		c-0.5,0-1-0.4-1-1s0.4-1,1-1V36c-0.5,0-1-0.4-1-1c0-0.5,0.4-1,1-1v-0.9c-0.5,0-1-0.4-1-1c0-0.6,0.4-1,1-1v-0.9c-0.5,0-1-0.4-1-1
		s0.4-1,1-1v-0.9c-0.5,0-1-0.4-1-1c0-0.5,0.4-1,1-1v-0.9c-0.5,0-1-0.4-1-1c0-0.5,0.4-1,1-1v-0.9c-0.5,0-1-0.4-1-1c0-0.5,0.4-1,1-1
		v-0.9c-0.5,0-1-0.4-1-1c0-0.5,0.4-1,1-1v-0.7c-0.5,0-1-0.4-1-1s0.4-1,1-1V13C44.5,13,44,12.6,44,12"/>
</g>
<polygon id="Path" class="st0" points="163,33.2 171.8,37.2 173.5,35.5 169,33.4 182.9,28.1 177.6,42 175.6,37.5 173.8,39.3 
	173.9,39.5 177.8,48 187,24 "/>
</svg>
